# xmcd
#
# Track frame offsets:
# 182
# 13780
# 27207
# 40935
# 54430
# 67250
# 81037
# 94805
# 106865
# 121455
# 136790
# 148560
# 161672
# 172815
# 184830
# 198910
# 212010
# 225165
# 239322
# 253565
# 266520
# 280390
#
# Disc length: 3924 seconds
#
#
# Revision: 0
# Processed by: cddbd v1.5.2PL0 Copyright (c) Steve Scherf et al.
# Submitted via: FreeRIP 2.941 
#
DISCID=2b0f5216
DTITLE=Big Joe Turner and Pete Johnson - Atomic Boogie [CD1]
DYEAR=2001
DGENRE=Blues
TTITLE0=S.K. Blues Part 1 - Joe Turner
TTITLE1=S.K. Blues Part 2 - Joe Turner
TTITLE2=Johnson And Turner Blues - Joe Turner
TTITLE3=Watch That Jive - Joe Turner
TTITLE4=Howling Wind - Joe Turner
TTITLE5=Doggin' The Blues - Joe Turner
TTITLE6=Miss Brown Blues - Joe Turner
TTITLE7=I Got My Discharge Papers - Joe Turner
TTITLE8=My Gal's A Jockey - Joe Turner
TTITLE9=I'm Still In The Dark - Joe Turner
TTITLE10=I Got Love For Sale - Joe Turner
TTITLE11=Sunday Morning Blues - Joe Turner
TTITLE12=Mad Blues - Joe Turner
TTITLE13=It's A Low Down Dirty Shame - Joe Turner
TTITLE14=I'm Still In The Dark - Joe Turner
TTITLE15=Miss Brown Blues - Joe Turner
TTITLE16=Sally Zu-Zazz - Joe Turner
TTITLE17=Rock Of Gibraltar Blues - Joe Turner
TTITLE18=Milk And Butter Blues - Joe Turner
TTITLE19=That's When It Really Hurts - Joe Turner
TTITLE20=I'm In Sharp When i Hit The Coast - Joe Turner
TTITLE21=Ooh Wee Baby Blues - Joe Turner
EXTD=
EXTT0=
EXTT1=
EXTT2=
EXTT3=
EXTT4=
EXTT5=
EXTT6=
EXTT7=
EXTT8=
EXTT9=
EXTT10=
EXTT11=
EXTT12=
EXTT13=
EXTT14=
EXTT15=
EXTT16=
EXTT17=
EXTT18=
EXTT19=
EXTT20=
EXTT21=
PLAYORDER=
